<?xml version="1.0" encoding="utf-8"?>
<!DOCTYPE svg PUBLIC "-//W3C//DTD SVG 1.0//EN" "http://www.w3.org/TR/2001/REC-SVG-20010904/DTD/svg10.dtd">
<svg xmlns="http://www.w3.org/2000/svg" xml:space="preserve" xmlns:xlink="http://www.w3.org/1999/xlink" width="66" height="66" viewBox="0 0 66 66">
<desc></desc>
<rect width="66" height="66" fill="#ffffff" cx="0" cy="0" />
<defs>
<rect id="p" width="2" height="2" />
</defs>
<g fill="#000000">
<use x="0" y="0" xlink:href="#p" />
<use x="2" y="0" xlink:href="#p" />
<use x="4" y="0" xlink:href="#p" />
<use x="6" y="0" xlink:href="#p" />
<use x="8" y="0" xlink:href="#p" />
<use x="10" y="0" xlink:href="#p" />
<use x="12" y="0" xlink:href="#p" />
<use x="20" y="0" xlink:href="#p" />
<use x="22" y="0" xlink:href="#p" />
<use x="30" y="0" xlink:href="#p" />
<use x="34" y="0" xlink:href="#p" />
<use x="36" y="0" xlink:href="#p" />
<use x="38" y="0" xlink:href="#p" />
<use x="40" y="0" xlink:href="#p" />
<use x="42" y="0" xlink:href="#p" />
<use x="44" y="0" xlink:href="#p" />
<use x="48" y="0" xlink:href="#p" />
<use x="52" y="0" xlink:href="#p" />
<use x="54" y="0" xlink:href="#p" />
<use x="56" y="0" xlink:href="#p" />
<use x="58" y="0" xlink:href="#p" />
<use x="60" y="0" xlink:href="#p" />
<use x="62" y="0" xlink:href="#p" />
<use x="64" y="0" xlink:href="#p" />
<use x="0" y="2" xlink:href="#p" />
<use x="12" y="2" xlink:href="#p" />
<use x="16" y="2" xlink:href="#p" />
<use x="24" y="2" xlink:href="#p" />
<use x="28" y="2" xlink:href="#p" />
<use x="32" y="2" xlink:href="#p" />
<use x="34" y="2" xlink:href="#p" />
<use x="38" y="2" xlink:href="#p" />
<use x="40" y="2" xlink:href="#p" />
<use x="42" y="2" xlink:href="#p" />
<use x="48" y="2" xlink:href="#p" />
<use x="52" y="2" xlink:href="#p" />
<use x="64" y="2" xlink:href="#p" />
<use x="0" y="4" xlink:href="#p" />
<use x="4" y="4" xlink:href="#p" />
<use x="6" y="4" xlink:href="#p" />
<use x="8" y="4" xlink:href="#p" />
<use x="12" y="4" xlink:href="#p" />
<use x="16" y="4" xlink:href="#p" />
<use x="24" y="4" xlink:href="#p" />
<use x="26" y="4" xlink:href="#p" />
<use x="28" y="4" xlink:href="#p" />
<use x="30" y="4" xlink:href="#p" />
<use x="36" y="4" xlink:href="#p" />
<use x="38" y="4" xlink:href="#p" />
<use x="40" y="4" xlink:href="#p" />
<use x="42" y="4" xlink:href="#p" />
<use x="52" y="4" xlink:href="#p" />
<use x="56" y="4" xlink:href="#p" />
<use x="58" y="4" xlink:href="#p" />
<use x="60" y="4" xlink:href="#p" />
<use x="64" y="4" xlink:href="#p" />
<use x="0" y="6" xlink:href="#p" />
<use x="4" y="6" xlink:href="#p" />
<use x="6" y="6" xlink:href="#p" />
<use x="8" y="6" xlink:href="#p" />
<use x="12" y="6" xlink:href="#p" />
<use x="16" y="6" xlink:href="#p" />
<use x="18" y="6" xlink:href="#p" />
<use x="24" y="6" xlink:href="#p" />
<use x="26" y="6" xlink:href="#p" />
<use x="32" y="6" xlink:href="#p" />
<use x="34" y="6" xlink:href="#p" />
<use x="36" y="6" xlink:href="#p" />
<use x="42" y="6" xlink:href="#p" />
<use x="44" y="6" xlink:href="#p" />
<use x="46" y="6" xlink:href="#p" />
<use x="48" y="6" xlink:href="#p" />
<use x="52" y="6" xlink:href="#p" />
<use x="56" y="6" xlink:href="#p" />
<use x="58" y="6" xlink:href="#p" />
<use x="60" y="6" xlink:href="#p" />
<use x="64" y="6" xlink:href="#p" />
<use x="0" y="8" xlink:href="#p" />
<use x="4" y="8" xlink:href="#p" />
<use x="6" y="8" xlink:href="#p" />
<use x="8" y="8" xlink:href="#p" />
<use x="12" y="8" xlink:href="#p" />
<use x="16" y="8" xlink:href="#p" />
<use x="22" y="8" xlink:href="#p" />
<use x="26" y="8" xlink:href="#p" />
<use x="30" y="8" xlink:href="#p" />
<use x="32" y="8" xlink:href="#p" />
<use x="38" y="8" xlink:href="#p" />
<use x="44" y="8" xlink:href="#p" />
<use x="46" y="8" xlink:href="#p" />
<use x="48" y="8" xlink:href="#p" />
<use x="52" y="8" xlink:href="#p" />
<use x="56" y="8" xlink:href="#p" />
<use x="58" y="8" xlink:href="#p" />
<use x="60" y="8" xlink:href="#p" />
<use x="64" y="8" xlink:href="#p" />
<use x="0" y="10" xlink:href="#p" />
<use x="12" y="10" xlink:href="#p" />
<use x="16" y="10" xlink:href="#p" />
<use x="18" y="10" xlink:href="#p" />
<use x="20" y="10" xlink:href="#p" />
<use x="24" y="10" xlink:href="#p" />
<use x="30" y="10" xlink:href="#p" />
<use x="38" y="10" xlink:href="#p" />
<use x="42" y="10" xlink:href="#p" />
<use x="44" y="10" xlink:href="#p" />
<use x="48" y="10" xlink:href="#p" />
<use x="52" y="10" xlink:href="#p" />
<use x="64" y="10" xlink:href="#p" />
<use x="0" y="12" xlink:href="#p" />
<use x="2" y="12" xlink:href="#p" />
<use x="4" y="12" xlink:href="#p" />
<use x="6" y="12" xlink:href="#p" />
<use x="8" y="12" xlink:href="#p" />
<use x="10" y="12" xlink:href="#p" />
<use x="12" y="12" xlink:href="#p" />
<use x="16" y="12" xlink:href="#p" />
<use x="20" y="12" xlink:href="#p" />
<use x="24" y="12" xlink:href="#p" />
<use x="28" y="12" xlink:href="#p" />
<use x="32" y="12" xlink:href="#p" />
<use x="36" y="12" xlink:href="#p" />
<use x="40" y="12" xlink:href="#p" />
<use x="44" y="12" xlink:href="#p" />
<use x="48" y="12" xlink:href="#p" />
<use x="52" y="12" xlink:href="#p" />
<use x="54" y="12" xlink:href="#p" />
<use x="56" y="12" xlink:href="#p" />
<use x="58" y="12" xlink:href="#p" />
<use x="60" y="12" xlink:href="#p" />
<use x="62" y="12" xlink:href="#p" />
<use x="64" y="12" xlink:href="#p" />
<use x="26" y="14" xlink:href="#p" />
<use x="28" y="14" xlink:href="#p" />
<use x="34" y="14" xlink:href="#p" />
<use x="38" y="14" xlink:href="#p" />
<use x="44" y="14" xlink:href="#p" />
<use x="4" y="16" xlink:href="#p" />
<use x="10" y="16" xlink:href="#p" />
<use x="12" y="16" xlink:href="#p" />
<use x="14" y="16" xlink:href="#p" />
<use x="16" y="16" xlink:href="#p" />
<use x="18" y="16" xlink:href="#p" />
<use x="22" y="16" xlink:href="#p" />
<use x="26" y="16" xlink:href="#p" />
<use x="28" y="16" xlink:href="#p" />
<use x="30" y="16" xlink:href="#p" />
<use x="32" y="16" xlink:href="#p" />
<use x="38" y="16" xlink:href="#p" />
<use x="40" y="16" xlink:href="#p" />
<use x="46" y="16" xlink:href="#p" />
<use x="48" y="16" xlink:href="#p" />
<use x="50" y="16" xlink:href="#p" />
<use x="54" y="16" xlink:href="#p" />
<use x="56" y="16" xlink:href="#p" />
<use x="58" y="16" xlink:href="#p" />
<use x="60" y="16" xlink:href="#p" />
<use x="62" y="16" xlink:href="#p" />
<use x="0" y="18" xlink:href="#p" />
<use x="4" y="18" xlink:href="#p" />
<use x="6" y="18" xlink:href="#p" />
<use x="14" y="18" xlink:href="#p" />
<use x="16" y="18" xlink:href="#p" />
<use x="22" y="18" xlink:href="#p" />
<use x="24" y="18" xlink:href="#p" />
<use x="26" y="18" xlink:href="#p" />
<use x="28" y="18" xlink:href="#p" />
<use x="34" y="18" xlink:href="#p" />
<use x="38" y="18" xlink:href="#p" />
<use x="42" y="18" xlink:href="#p" />
<use x="44" y="18" xlink:href="#p" />
<use x="46" y="18" xlink:href="#p" />
<use x="50" y="18" xlink:href="#p" />
<use x="52" y="18" xlink:href="#p" />
<use x="54" y="18" xlink:href="#p" />
<use x="58" y="18" xlink:href="#p" />
<use x="60" y="18" xlink:href="#p" />
<use x="64" y="18" xlink:href="#p" />
<use x="0" y="20" xlink:href="#p" />
<use x="2" y="20" xlink:href="#p" />
<use x="10" y="20" xlink:href="#p" />
<use x="12" y="20" xlink:href="#p" />
<use x="18" y="20" xlink:href="#p" />
<use x="20" y="20" xlink:href="#p" />
<use x="22" y="20" xlink:href="#p" />
<use x="24" y="20" xlink:href="#p" />
<use x="30" y="20" xlink:href="#p" />
<use x="36" y="20" xlink:href="#p" />
<use x="46" y="20" xlink:href="#p" />
<use x="52" y="20" xlink:href="#p" />
<use x="54" y="20" xlink:href="#p" />
<use x="56" y="20" xlink:href="#p" />
<use x="62" y="20" xlink:href="#p" />
<use x="64" y="20" xlink:href="#p" />
<use x="0" y="22" xlink:href="#p" />
<use x="2" y="22" xlink:href="#p" />
<use x="6" y="22" xlink:href="#p" />
<use x="8" y="22" xlink:href="#p" />
<use x="16" y="22" xlink:href="#p" />
<use x="20" y="22" xlink:href="#p" />
<use x="22" y="22" xlink:href="#p" />
<use x="26" y="22" xlink:href="#p" />
<use x="28" y="22" xlink:href="#p" />
<use x="32" y="22" xlink:href="#p" />
<use x="36" y="22" xlink:href="#p" />
<use x="42" y="22" xlink:href="#p" />
<use x="46" y="22" xlink:href="#p" />
<use x="50" y="22" xlink:href="#p" />
<use x="54" y="22" xlink:href="#p" />
<use x="58" y="22" xlink:href="#p" />
<use x="62" y="22" xlink:href="#p" />
<use x="0" y="24" xlink:href="#p" />
<use x="4" y="24" xlink:href="#p" />
<use x="8" y="24" xlink:href="#p" />
<use x="12" y="24" xlink:href="#p" />
<use x="16" y="24" xlink:href="#p" />
<use x="22" y="24" xlink:href="#p" />
<use x="24" y="24" xlink:href="#p" />
<use x="32" y="24" xlink:href="#p" />
<use x="36" y="24" xlink:href="#p" />
<use x="38" y="24" xlink:href="#p" />
<use x="42" y="24" xlink:href="#p" />
<use x="46" y="24" xlink:href="#p" />
<use x="52" y="24" xlink:href="#p" />
<use x="62" y="24" xlink:href="#p" />
<use x="8" y="26" xlink:href="#p" />
<use x="10" y="26" xlink:href="#p" />
<use x="14" y="26" xlink:href="#p" />
<use x="16" y="26" xlink:href="#p" />
<use x="22" y="26" xlink:href="#p" />
<use x="24" y="26" xlink:href="#p" />
<use x="26" y="26" xlink:href="#p" />
<use x="28" y="26" xlink:href="#p" />
<use x="30" y="26" xlink:href="#p" />
<use x="32" y="26" xlink:href="#p" />
<use x="36" y="26" xlink:href="#p" />
<use x="40" y="26" xlink:href="#p" />
<use x="42" y="26" xlink:href="#p" />
<use x="46" y="26" xlink:href="#p" />
<use x="48" y="26" xlink:href="#p" />
<use x="50" y="26" xlink:href="#p" />
<use x="52" y="26" xlink:href="#p" />
<use x="58" y="26" xlink:href="#p" />
<use x="64" y="26" xlink:href="#p" />
<use x="0" y="28" xlink:href="#p" />
<use x="4" y="28" xlink:href="#p" />
<use x="6" y="28" xlink:href="#p" />
<use x="8" y="28" xlink:href="#p" />
<use x="10" y="28" xlink:href="#p" />
<use x="12" y="28" xlink:href="#p" />
<use x="14" y="28" xlink:href="#p" />
<use x="22" y="28" xlink:href="#p" />
<use x="24" y="28" xlink:href="#p" />
<use x="30" y="28" xlink:href="#p" />
<use x="34" y="28" xlink:href="#p" />
<use x="36" y="28" xlink:href="#p" />
<use x="38" y="28" xlink:href="#p" />
<use x="46" y="28" xlink:href="#p" />
<use x="60" y="28" xlink:href="#p" />
<use x="64" y="28" xlink:href="#p" />
<use x="0" y="30" xlink:href="#p" />
<use x="2" y="30" xlink:href="#p" />
<use x="4" y="30" xlink:href="#p" />
<use x="8" y="30" xlink:href="#p" />
<use x="10" y="30" xlink:href="#p" />
<use x="16" y="30" xlink:href="#p" />
<use x="20" y="30" xlink:href="#p" />
<use x="30" y="30" xlink:href="#p" />
<use x="32" y="30" xlink:href="#p" />
<use x="34" y="30" xlink:href="#p" />
<use x="38" y="30" xlink:href="#p" />
<use x="40" y="30" xlink:href="#p" />
<use x="44" y="30" xlink:href="#p" />
<use x="46" y="30" xlink:href="#p" />
<use x="48" y="30" xlink:href="#p" />
<use x="54" y="30" xlink:href="#p" />
<use x="56" y="30" xlink:href="#p" />
<use x="58" y="30" xlink:href="#p" />
<use x="64" y="30" xlink:href="#p" />
<use x="2" y="32" xlink:href="#p" />
<use x="6" y="32" xlink:href="#p" />
<use x="12" y="32" xlink:href="#p" />
<use x="16" y="32" xlink:href="#p" />
<use x="22" y="32" xlink:href="#p" />
<use x="24" y="32" xlink:href="#p" />
<use x="26" y="32" xlink:href="#p" />
<use x="32" y="32" xlink:href="#p" />
<use x="36" y="32" xlink:href="#p" />
<use x="38" y="32" xlink:href="#p" />
<use x="48" y="32" xlink:href="#p" />
<use x="52" y="32" xlink:href="#p" />
<use x="54" y="32" xlink:href="#p" />
<use x="0" y="34" xlink:href="#p" />
<use x="2" y="34" xlink:href="#p" />
<use x="4" y="34" xlink:href="#p" />
<use x="6" y="34" xlink:href="#p" />
<use x="8" y="34" xlink:href="#p" />
<use x="10" y="34" xlink:href="#p" />
<use x="14" y="34" xlink:href="#p" />
<use x="16" y="34" xlink:href="#p" />
<use x="20" y="34" xlink:href="#p" />
<use x="22" y="34" xlink:href="#p" />
<use x="32" y="34" xlink:href="#p" />
<use x="36" y="34" xlink:href="#p" />
<use x="38" y="34" xlink:href="#p" />
<use x="40" y="34" xlink:href="#p" />
<use x="42" y="34" xlink:href="#p" />
<use x="46" y="34" xlink:href="#p" />
<use x="52" y="34" xlink:href="#p" />
<use x="54" y="34" xlink:href="#p" />
<use x="60" y="34" xlink:href="#p" />
<use x="64" y="34" xlink:href="#p" />
<use x="6" y="36" xlink:href="#p" />
<use x="8" y="36" xlink:href="#p" />
<use x="10" y="36" xlink:href="#p" />
<use x="12" y="36" xlink:href="#p" />
<use x="14" y="36" xlink:href="#p" />
<use x="16" y="36" xlink:href="#p" />
<use x="24" y="36" xlink:href="#p" />
<use x="30" y="36" xlink:href="#p" />
<use x="36" y="36" xlink:href="#p" />
<use x="42" y="36" xlink:href="#p" />
<use x="46" y="36" xlink:href="#p" />
<use x="48" y="36" xlink:href="#p" />
<use x="50" y="36" xlink:href="#p" />
<use x="56" y="36" xlink:href="#p" />
<use x="58" y="36" xlink:href="#p" />
<use x="60" y="36" xlink:href="#p" />
<use x="64" y="36" xlink:href="#p" />
<use x="2" y="38" xlink:href="#p" />
<use x="4" y="38" xlink:href="#p" />
<use x="6" y="38" xlink:href="#p" />
<use x="16" y="38" xlink:href="#p" />
<use x="18" y="38" xlink:href="#p" />
<use x="20" y="38" xlink:href="#p" />
<use x="24" y="38" xlink:href="#p" />
<use x="28" y="38" xlink:href="#p" />
<use x="30" y="38" xlink:href="#p" />
<use x="34" y="38" xlink:href="#p" />
<use x="38" y="38" xlink:href="#p" />
<use x="44" y="38" xlink:href="#p" />
<use x="46" y="38" xlink:href="#p" />
<use x="50" y="38" xlink:href="#p" />
<use x="58" y="38" xlink:href="#p" />
<use x="62" y="38" xlink:href="#p" />
<use x="0" y="40" xlink:href="#p" />
<use x="4" y="40" xlink:href="#p" />
<use x="10" y="40" xlink:href="#p" />
<use x="12" y="40" xlink:href="#p" />
<use x="18" y="40" xlink:href="#p" />
<use x="22" y="40" xlink:href="#p" />
<use x="26" y="40" xlink:href="#p" />
<use x="28" y="40" xlink:href="#p" />
<use x="32" y="40" xlink:href="#p" />
<use x="34" y="40" xlink:href="#p" />
<use x="36" y="40" xlink:href="#p" />
<use x="40" y="40" xlink:href="#p" />
<use x="48" y="40" xlink:href="#p" />
<use x="50" y="40" xlink:href="#p" />
<use x="52" y="40" xlink:href="#p" />
<use x="54" y="40" xlink:href="#p" />
<use x="62" y="40" xlink:href="#p" />
<use x="4" y="42" xlink:href="#p" />
<use x="6" y="42" xlink:href="#p" />
<use x="8" y="42" xlink:href="#p" />
<use x="10" y="42" xlink:href="#p" />
<use x="16" y="42" xlink:href="#p" />
<use x="26" y="42" xlink:href="#p" />
<use x="30" y="42" xlink:href="#p" />
<use x="36" y="42" xlink:href="#p" />
<use x="48" y="42" xlink:href="#p" />
<use x="54" y="42" xlink:href="#p" />
<use x="58" y="42" xlink:href="#p" />
<use x="60" y="42" xlink:href="#p" />
<use x="64" y="42" xlink:href="#p" />
<use x="0" y="44" xlink:href="#p" />
<use x="2" y="44" xlink:href="#p" />
<use x="6" y="44" xlink:href="#p" />
<use x="10" y="44" xlink:href="#p" />
<use x="12" y="44" xlink:href="#p" />
<use x="18" y="44" xlink:href="#p" />
<use x="26" y="44" xlink:href="#p" />
<use x="30" y="44" xlink:href="#p" />
<use x="34" y="44" xlink:href="#p" />
<use x="38" y="44" xlink:href="#p" />
<use x="40" y="44" xlink:href="#p" />
<use x="48" y="44" xlink:href="#p" />
<use x="50" y="44" xlink:href="#p" />
<use x="52" y="44" xlink:href="#p" />
<use x="54" y="44" xlink:href="#p" />
<use x="56" y="44" xlink:href="#p" />
<use x="58" y="44" xlink:href="#p" />
<use x="62" y="44" xlink:href="#p" />
<use x="64" y="44" xlink:href="#p" />
<use x="4" y="46" xlink:href="#p" />
<use x="8" y="46" xlink:href="#p" />
<use x="10" y="46" xlink:href="#p" />
<use x="18" y="46" xlink:href="#p" />
<use x="20" y="46" xlink:href="#p" />
<use x="26" y="46" xlink:href="#p" />
<use x="28" y="46" xlink:href="#p" />
<use x="30" y="46" xlink:href="#p" />
<use x="34" y="46" xlink:href="#p" />
<use x="38" y="46" xlink:href="#p" />
<use x="40" y="46" xlink:href="#p" />
<use x="46" y="46" xlink:href="#p" />
<use x="48" y="46" xlink:href="#p" />
<use x="54" y="46" xlink:href="#p" />
<use x="58" y="46" xlink:href="#p" />
<use x="62" y="46" xlink:href="#p" />
<use x="0" y="48" xlink:href="#p" />
<use x="2" y="48" xlink:href="#p" />
<use x="4" y="48" xlink:href="#p" />
<use x="6" y="48" xlink:href="#p" />
<use x="8" y="48" xlink:href="#p" />
<use x="10" y="48" xlink:href="#p" />
<use x="12" y="48" xlink:href="#p" />
<use x="14" y="48" xlink:href="#p" />
<use x="16" y="48" xlink:href="#p" />
<use x="18" y="48" xlink:href="#p" />
<use x="22" y="48" xlink:href="#p" />
<use x="24" y="48" xlink:href="#p" />
<use x="26" y="48" xlink:href="#p" />
<use x="28" y="48" xlink:href="#p" />
<use x="32" y="48" xlink:href="#p" />
<use x="34" y="48" xlink:href="#p" />
<use x="36" y="48" xlink:href="#p" />
<use x="38" y="48" xlink:href="#p" />
<use x="48" y="48" xlink:href="#p" />
<use x="50" y="48" xlink:href="#p" />
<use x="52" y="48" xlink:href="#p" />
<use x="54" y="48" xlink:href="#p" />
<use x="56" y="48" xlink:href="#p" />
<use x="58" y="48" xlink:href="#p" />
<use x="62" y="48" xlink:href="#p" />
<use x="64" y="48" xlink:href="#p" />
<use x="16" y="50" xlink:href="#p" />
<use x="22" y="50" xlink:href="#p" />
<use x="30" y="50" xlink:href="#p" />
<use x="46" y="50" xlink:href="#p" />
<use x="48" y="50" xlink:href="#p" />
<use x="56" y="50" xlink:href="#p" />
<use x="64" y="50" xlink:href="#p" />
<use x="0" y="52" xlink:href="#p" />
<use x="2" y="52" xlink:href="#p" />
<use x="4" y="52" xlink:href="#p" />
<use x="6" y="52" xlink:href="#p" />
<use x="8" y="52" xlink:href="#p" />
<use x="10" y="52" xlink:href="#p" />
<use x="12" y="52" xlink:href="#p" />
<use x="16" y="52" xlink:href="#p" />
<use x="22" y="52" xlink:href="#p" />
<use x="26" y="52" xlink:href="#p" />
<use x="28" y="52" xlink:href="#p" />
<use x="30" y="52" xlink:href="#p" />
<use x="32" y="52" xlink:href="#p" />
<use x="34" y="52" xlink:href="#p" />
<use x="36" y="52" xlink:href="#p" />
<use x="42" y="52" xlink:href="#p" />
<use x="44" y="52" xlink:href="#p" />
<use x="48" y="52" xlink:href="#p" />
<use x="52" y="52" xlink:href="#p" />
<use x="56" y="52" xlink:href="#p" />
<use x="64" y="52" xlink:href="#p" />
<use x="0" y="54" xlink:href="#p" />
<use x="12" y="54" xlink:href="#p" />
<use x="16" y="54" xlink:href="#p" />
<use x="20" y="54" xlink:href="#p" />
<use x="24" y="54" xlink:href="#p" />
<use x="26" y="54" xlink:href="#p" />
<use x="32" y="54" xlink:href="#p" />
<use x="34" y="54" xlink:href="#p" />
<use x="40" y="54" xlink:href="#p" />
<use x="44" y="54" xlink:href="#p" />
<use x="46" y="54" xlink:href="#p" />
<use x="48" y="54" xlink:href="#p" />
<use x="56" y="54" xlink:href="#p" />
<use x="58" y="54" xlink:href="#p" />
<use x="62" y="54" xlink:href="#p" />
<use x="64" y="54" xlink:href="#p" />
<use x="0" y="56" xlink:href="#p" />
<use x="4" y="56" xlink:href="#p" />
<use x="6" y="56" xlink:href="#p" />
<use x="8" y="56" xlink:href="#p" />
<use x="12" y="56" xlink:href="#p" />
<use x="18" y="56" xlink:href="#p" />
<use x="20" y="56" xlink:href="#p" />
<use x="24" y="56" xlink:href="#p" />
<use x="26" y="56" xlink:href="#p" />
<use x="28" y="56" xlink:href="#p" />
<use x="34" y="56" xlink:href="#p" />
<use x="36" y="56" xlink:href="#p" />
<use x="42" y="56" xlink:href="#p" />
<use x="44" y="56" xlink:href="#p" />
<use x="46" y="56" xlink:href="#p" />
<use x="48" y="56" xlink:href="#p" />
<use x="50" y="56" xlink:href="#p" />
<use x="52" y="56" xlink:href="#p" />
<use x="54" y="56" xlink:href="#p" />
<use x="56" y="56" xlink:href="#p" />
<use x="58" y="56" xlink:href="#p" />
<use x="62" y="56" xlink:href="#p" />
<use x="64" y="56" xlink:href="#p" />
<use x="0" y="58" xlink:href="#p" />
<use x="4" y="58" xlink:href="#p" />
<use x="6" y="58" xlink:href="#p" />
<use x="8" y="58" xlink:href="#p" />
<use x="12" y="58" xlink:href="#p" />
<use x="18" y="58" xlink:href="#p" />
<use x="22" y="58" xlink:href="#p" />
<use x="26" y="58" xlink:href="#p" />
<use x="28" y="58" xlink:href="#p" />
<use x="34" y="58" xlink:href="#p" />
<use x="42" y="58" xlink:href="#p" />
<use x="44" y="58" xlink:href="#p" />
<use x="46" y="58" xlink:href="#p" />
<use x="54" y="58" xlink:href="#p" />
<use x="56" y="58" xlink:href="#p" />
<use x="58" y="58" xlink:href="#p" />
<use x="62" y="58" xlink:href="#p" />
<use x="0" y="60" xlink:href="#p" />
<use x="4" y="60" xlink:href="#p" />
<use x="6" y="60" xlink:href="#p" />
<use x="8" y="60" xlink:href="#p" />
<use x="12" y="60" xlink:href="#p" />
<use x="16" y="60" xlink:href="#p" />
<use x="20" y="60" xlink:href="#p" />
<use x="22" y="60" xlink:href="#p" />
<use x="24" y="60" xlink:href="#p" />
<use x="26" y="60" xlink:href="#p" />
<use x="30" y="60" xlink:href="#p" />
<use x="34" y="60" xlink:href="#p" />
<use x="36" y="60" xlink:href="#p" />
<use x="38" y="60" xlink:href="#p" />
<use x="40" y="60" xlink:href="#p" />
<use x="48" y="60" xlink:href="#p" />
<use x="56" y="60" xlink:href="#p" />
<use x="62" y="60" xlink:href="#p" />
<use x="64" y="60" xlink:href="#p" />
<use x="0" y="62" xlink:href="#p" />
<use x="12" y="62" xlink:href="#p" />
<use x="20" y="62" xlink:href="#p" />
<use x="28" y="62" xlink:href="#p" />
<use x="32" y="62" xlink:href="#p" />
<use x="34" y="62" xlink:href="#p" />
<use x="38" y="62" xlink:href="#p" />
<use x="44" y="62" xlink:href="#p" />
<use x="48" y="62" xlink:href="#p" />
<use x="50" y="62" xlink:href="#p" />
<use x="0" y="64" xlink:href="#p" />
<use x="2" y="64" xlink:href="#p" />
<use x="4" y="64" xlink:href="#p" />
<use x="6" y="64" xlink:href="#p" />
<use x="8" y="64" xlink:href="#p" />
<use x="10" y="64" xlink:href="#p" />
<use x="12" y="64" xlink:href="#p" />
<use x="18" y="64" xlink:href="#p" />
<use x="26" y="64" xlink:href="#p" />
<use x="28" y="64" xlink:href="#p" />
<use x="30" y="64" xlink:href="#p" />
<use x="32" y="64" xlink:href="#p" />
<use x="34" y="64" xlink:href="#p" />
<use x="40" y="64" xlink:href="#p" />
<use x="42" y="64" xlink:href="#p" />
<use x="46" y="64" xlink:href="#p" />
<use x="48" y="64" xlink:href="#p" />
<use x="50" y="64" xlink:href="#p" />
<use x="56" y="64" xlink:href="#p" />
<use x="58" y="64" xlink:href="#p" />
<use x="64" y="64" xlink:href="#p" />
</g>
</svg>