<svg xmlns:xlink="http://www.w3.org/1999/xlink" height="450" width="600" xmlns="http://www.w3.org/2000/svg" style="font-family:'lucida grande', 'lucida sans unicode', arial, helvetica, sans-serif;font-size:12px;" version="1.1"><desc>Created with Highcharts 4.0.4</desc><defs><radialGradient id="highcharts-21" r="0.7" cy="0.3" cx="0.5"><stop stop-opacity="1" stop-color="#7cb5ec" offset="0"></stop><stop stop-opacity="1" stop-color="rgb(48,105,160)" offset="1"></stop></radialGradient><radialGradient id="highcharts-22" r="0.7" cy="0.3" cx="0.5"><stop stop-opacity="1" stop-color="#434348" offset="0"></stop><stop stop-opacity="1" stop-color="rgb(0,0,0)" offset="1"></stop></radialGradient><radialGradient id="highcharts-23" r="0.7" cy="0.3" cx="0.5"><stop stop-opacity="1" stop-color="#90ed7d" offset="0"></stop><stop stop-opacity="1" stop-color="rgb(68,161,49)" offset="1"></stop></radialGradient><radialGradient id="highcharts-24" r="0.7" cy="0.3" cx="0.5"><stop stop-opacity="1" stop-color="#f7a35c" offset="0"></stop><stop stop-opacity="1" stop-color="rgb(171,87,16)" offset="1"></stop></radialGradient><radialGradient id="highcharts-25" r="0.7" cy="0.3" cx="0.5"><stop stop-opacity="1" stop-color="#8085e9" offset="0"></stop><stop stop-opacity="1" stop-color="rgb(52,57,157)" offset="1"></stop></radialGradient><clipPath id="highcharts-26"><rect height="347" width="549" y="0" x="0"></rect></clipPath><radialGradient gradientUnits="userSpaceOnUse" id="highcharts-27" r="56" cy="46" cx="100"><stop stop-opacity="1" stop-color="#7cb5ec" offset="0"></stop><stop stop-opacity="1" stop-color="rgb(48,105,160)" offset="1"></stop></radialGradient><radialGradient gradientUnits="userSpaceOnUse" id="highcharts-28" r="56" cy="46" cx="100"><stop stop-opacity="1" stop-color="#434348" offset="0"></stop><stop stop-opacity="1" stop-color="rgb(0,0,0)" offset="1"></stop></radialGradient><radialGradient gradientUnits="userSpaceOnUse" id="highcharts-29" r="56" cy="46" cx="100"><stop stop-opacity="1" stop-color="#90ed7d" offset="0"></stop><stop stop-opacity="1" stop-color="rgb(68,161,49)" offset="1"></stop></radialGradient><radialGradient gradientUnits="userSpaceOnUse" id="highcharts-30" r="56" cy="46" cx="100"><stop stop-opacity="1" stop-color="#f7a35c" offset="0"></stop><stop stop-opacity="1" stop-color="rgb(171,87,16)" offset="1"></stop></radialGradient></defs><rect class=" highcharts-background" fill="#FFFFFF" strokeWidth="0" height="450" width="600" y="0" x="0"></rect><g  class="highcharts-grid"></g><g  class="highcharts-grid"><path opacity="1"  stroke-width="1" stroke="#C0C0C0" d="M 41 9.5 L 590 9.5" fill="none"></path><path opacity="1"  stroke-width="1" stroke="#C0C0C0" d="M 41 60.5 L 590 60.5" fill="none"></path><path opacity="1"  stroke-width="1" stroke="#C0C0C0" d="M 41 109.5 L 590 109.5" fill="none"></path><path opacity="1"  stroke-width="1" stroke="#C0C0C0" d="M 41 159.5 L 590 159.5" fill="none"></path><path opacity="1"  stroke-width="1" stroke="#C0C0C0" d="M 41 208.5 L 590 208.5" fill="none"></path><path opacity="1"  stroke-width="1" stroke="#C0C0C0" d="M 41 258.5 L 590 258.5" fill="none"></path><path opacity="1"  stroke-width="1" stroke="#C0C0C0" d="M 41 307.5 L 590 307.5" fill="none"></path><path opacity="1"  stroke-width="1" stroke="#C0C0C0" d="M 41 357.5 L 590 357.5" fill="none"></path></g><g  class="highcharts-axis"><path opacity="1" stroke-width="1" stroke="#C0D0E0" d="M 590.5 357 L 590.5 367" fill="none"></path><path opacity="1" stroke-width="1" stroke="#C0D0E0" d="M 315.5 357 L 315.5 367" fill="none"></path><path opacity="1" stroke-width="1" stroke="#C0D0E0" d="M 40.5 357 L 40.5 367" fill="none"></path><path visibility="visible"  stroke-width="1" stroke="#C0D0E0" d="M 41 357.5 L 590 357.5" fill="none"></path></g><g  class="highcharts-axis"></g><g  class="highcharts-series-group"><g clip-path="url(#highcharts-26)" transform="translate(41,10) scale(1 1)"  visibility="visible" class="highcharts-series"><rect stroke-width="1" stroke="#FFFFFF" ry="0" rx="0" fill="url(#highcharts-21)" height="0" width="44" y="347.5" x="59.5"></rect><rect stroke-width="1" stroke="#FFFFFF" ry="0" rx="0" fill="url(#highcharts-21)" height="13" width="44" y="334.5" x="334.5"></rect></g><g clip-path="none" transform="translate(41,10) scale(1 1)"  visibility="visible" class="highcharts-markers"></g><g clip-path="url(#highcharts-26)" transform="translate(41,10) scale(1 1)"  visibility="visible" class="highcharts-series"><rect stroke-width="1" stroke="#FFFFFF" ry="0" rx="0" fill="url(#highcharts-22)" height="0" width="44" y="347.5" x="114.5"></rect><rect stroke-width="1" stroke="#FFFFFF" ry="0" rx="0" fill="url(#highcharts-22)" height="4" width="44" y="343.5" x="389.5"></rect></g><g clip-path="none" transform="translate(41,10) scale(1 1)"  visibility="visible" class="highcharts-markers"></g><g clip-path="url(#highcharts-26)" transform="translate(41,10) scale(1 1)"  visibility="visible" class="highcharts-series"><rect stroke-width="1" stroke="#FFFFFF" ry="0" rx="0" fill="url(#highcharts-23)" height="25" width="44" y="322.5" x="169.5"></rect><rect stroke-width="1" stroke="#FFFFFF" ry="0" rx="0" fill="url(#highcharts-23)" height="66" width="44" y="281.5" x="444.5"></rect></g><g clip-path="none" transform="translate(41,10) scale(1 1)"  visibility="visible" class="highcharts-markers"></g><g clip-path="url(#highcharts-26)" transform="translate(41,10) scale(1 1)"  visibility="visible" class="highcharts-series"><path stroke-linecap="round" stroke-linejoin="round"  stroke-width="2" stroke="url(#highcharts-24)" d="M 137.25 347 C 137.25 347 411.75 24.042142857142835 411.75 24.042142857142835" fill="none"></path></g><g clip-path="none" transform="translate(41,10) scale(1 1)"  visibility="visible" class="highcharts-markers"><path stroke-width="2" stroke="url(#highcharts-24)" d="M 411 20.042142857142835 C 416.328 20.042142857142835 416.328 28.042142857142835 411 28.042142857142835 C 405.672 28.042142857142835 405.672 20.042142857142835 411 20.042142857142835 Z" fill="white"></path><path stroke-width="2" stroke="url(#highcharts-24)" d="M 137 343 C 142.328 343 142.328 351 137 351 C 131.672 351 131.672 343 137 343 Z" fill="white"></path></g><g clip-path="url(#highcharts-26)" transform="translate(41,10) scale(1 1)"  visibility="visible" class="highcharts-series"><path stroke-linecap="round" stroke-linejoin="round"  stroke-width="2" stroke="url(#highcharts-25)" d="M 137.25 347 C 137.25 347 411.75 282.40842857142854 411.75 282.40842857142854" fill="none"></path></g><g clip-path="none" transform="translate(41,10) scale(1 1)"  visibility="visible" class="highcharts-markers"><path stroke-width="2" stroke="url(#highcharts-24)" d="M 411 278.40842857142854 L 415 282.40842857142854 411 286.40842857142854 407 282.40842857142854 Z" fill="white"></path><path stroke-width="2" stroke="url(#highcharts-24)" d="M 137 343 L 141 347 137 351 133 347 Z" fill="white"></path></g><g transform="translate(41,10) scale(1 1)"  visibility="visible" class="highcharts-series"><path transform="translate(0,0)" stroke-linejoin="round" stroke-width="1" stroke="#FFFFFF" d="M 99.99185307185219 22.000000829655484 A 40 40 0 0 1 99.95185308342198 22.000028976580197 L 100 62 A 0 0 0 0 0 100 62 Z" fill="url(#highcharts-27)"></path><path transform="translate(0,0)" stroke-linejoin="round" stroke-width="1" stroke="#FFFFFF" d="M 99.99185307185219 22.000000829655484 A 40 40 0 0 1 99.95185308342198 22.000028976580197 L 100 62 A 0 0 0 0 0 100 62 Z" fill="url(#highcharts-28)"></path><path transform="translate(0,0)" stroke-linejoin="round" stroke-width="1" stroke="#FFFFFF" d="M 99.99185307185219 22.000000829655484 A 40 40 0 1 1 77.14423276263048 94.8270300817967 L 100 62 A 0 0 0 1 0 100 62 Z" fill="url(#highcharts-29)"></path><path transform="translate(0,0)" stroke-linejoin="round" stroke-width="1" stroke="#FFFFFF" d="M 77.11141716590252 94.80415790485497 A 40 40 0 0 1 99.94444080247713 22.000038585323978 L 100 62 A 0 0 0 0 0 100 62 Z" fill="url(#highcharts-30)"></path></g><g transform="translate(41,10) scale(1 1)"  visibility="visible" class="highcharts-markers"></g></g><g transform="translate(73,400)"  class="highcharts-legend"><g ><g><g transform="translate(8,3)"  class="highcharts-legend-item"><text y="15"  text-anchor="start" style="color:#333333;font-size:12px;font-weight:bold;cursor:pointer;fill:#333333;" x="21"><tspan>Sold Product Tax</tspan></text><rect fill="url(#highcharts-21)"  height="12" width="16" y="4" x="0"></rect></g><g transform="translate(166,3)"  class="highcharts-legend-item"><text  text-anchor="start" style="color:#333333;font-size:12px;font-weight:bold;cursor:pointer;fill:#333333;" y="15" x="21"><tspan>Invoice Tax</tspan></text><rect fill="url(#highcharts-22)"  height="12" width="16" y="4" x="0"></rect></g><g transform="translate(286,3)"  class="highcharts-legend-item"><text  text-anchor="start" style="color:#333333;font-size:12px;font-weight:bold;cursor:pointer;fill:#333333;" y="15" x="21">Sales</text><rect fill="url(#highcharts-23)"  height="12" width="16" y="4" x="0"></rect></g><g transform="translate(364,3)"  class="highcharts-legend-item"><path stroke-width="2" stroke="url(#highcharts-24)" d="M 0 11 L 16 11" fill="none"></path><path stroke-width="2" stroke="url(#highcharts-24)" d="M 8 7 C 13.328 7 13.328 15 8 15 C 2.6719999999999997 15 2.6719999999999997 7 8 7 Z" fill="white"></path><text  text-anchor="start" style="color:#333333;font-size:12px;font-weight:bold;cursor:pointer;fill:#333333;" y="15" x="21">Purchases</text></g><g transform="translate(8,19)"  class="highcharts-legend-item"><path stroke-width="2" stroke="url(#highcharts-25)" d="M 0 11 L 16 11" fill="none"></path><path stroke-width="2" stroke="url(#highcharts-24)" d="M 8 7 L 12 11 8 15 4 11 Z" fill="white"></path><text  text-anchor="start" style="color:#333333;font-size:12px;font-weight:bold;cursor:pointer;fill:#333333;" y="15" x="21"><tspan>Purchase Product Tax</tspan></text></g></g></g></g><g  class="highcharts-axis-labels highcharts-xaxis-labels"><text opacity="1" y="377" style="width:255px;color:#606060;cursor:default;font-size:11px;fill:#606060;" text-anchor="middle" x="178.25">Sep-2014</text><text opacity="1" y="377" style="width:255px;color:#606060;cursor:default;font-size:11px;fill:#606060;" text-anchor="middle" x="452.75">Nov-2014</text></g><g  class="highcharts-axis-labels highcharts-yaxis-labels"><text opacity="1" y="361.5" style="width:178px;color:#606060;cursor:default;font-size:11px;fill:#606060;" text-anchor="end" x="26">0k</text><text opacity="1" y="311.92857142857144" style="width:178px;color:#606060;cursor:default;font-size:11px;fill:#606060;" text-anchor="end" x="26">1k</text><text opacity="1" y="262.3571428571429" style="width:178px;color:#606060;cursor:default;font-size:11px;fill:#606060;" text-anchor="end" x="26">2k</text><text opacity="1" y="212.78571428571428" style="width:178px;color:#606060;cursor:default;font-size:11px;fill:#606060;" text-anchor="end" x="26">3k</text><text opacity="1" y="163.21428571428572" style="width:178px;color:#606060;cursor:default;font-size:11px;fill:#606060;" text-anchor="end" x="26">4k</text><text opacity="1" y="113.64285714285714" style="width:178px;color:#606060;cursor:default;font-size:11px;fill:#606060;" text-anchor="end" x="26">5k</text><text opacity="1" y="64.07142857142856" style="width:178px;color:#606060;cursor:default;font-size:11px;fill:#606060;" text-anchor="end" x="26">6k</text><text opacity="1" y="14.5" style="width:178px;color:#606060;cursor:default;font-size:11px;fill:#606060;" text-anchor="end" x="26">7k</text></g><g transform="translate(0,-9999)" style="cursor:default;padding:0;white-space:nowrap;"  class="highcharts-tooltip"><path transform="translate(1, 1)" stroke-width="5" stroke-opacity="0.049999999999999996" stroke="black"  d="M 3 0 L 17 0 C 20 0 20 0 20 3 L 20 17 C 20 20 20 20 17 20 L 3 20 C 0 20 0 20 0 17 L 0 3 C 0 0 0 0 3 0" fill="none"></path><path transform="translate(1, 1)" stroke-width="3" stroke-opacity="0.09999999999999999" stroke="black"  d="M 3 0 L 17 0 C 20 0 20 0 20 3 L 20 17 C 20 20 20 20 17 20 L 3 20 C 0 20 0 20 0 17 L 0 3 C 0 0 0 0 3 0" fill="none"></path><path transform="translate(1, 1)" stroke-width="1" stroke-opacity="0.15" stroke="black"  d="M 3 0 L 17 0 C 20 0 20 0 20 3 L 20 17 C 20 20 20 20 17 20 L 3 20 C 0 20 0 20 0 17 L 0 3 C 0 0 0 0 3 0" fill="none"></path><path d="M 3 0 L 17 0 C 20 0 20 0 20 3 L 20 17 C 20 20 20 20 17 20 L 3 20 C 0 20 0 20 0 17 L 0 3 C 0 0 0 0 3 0" fill="rgb(249, 249, 249)" fill-opacity=" .85"></path><text y="24" style="font-size:13px;font-weight:bold;color:#000000;fill:#000000;"  x="10"></text></g></svg>